<?xml version="1.0" standalone="no"?>
<!DOCTYPE svg PUBLIC "-//W3C//DTD SVG 20010904//EN"
 "http://www.w3.org/TR/2001/REC-SVG-20010904/DTD/svg10.dtd">
<svg version="1.0" xmlns="http://www.w3.org/2000/svg"
 width="700.000000pt" height="700.000000pt" viewBox="0 0 700.000000 700.000000"
 preserveAspectRatio="xMidYMid meet">
<metadata>
Created by potrace 1.11, written by Peter Selinger 2001-2013
</metadata>
<g transform="translate(0.000000,700.000000) scale(0.100000,-0.100000)"
fill="#000000" stroke="none">
<path d="M4909 6946 c-2 -2 -31 -7 -64 -11 -225 -25 -527 -145 -734 -293 -442
-314 -707 -808 -716 -1332 -2 -159 12 -308 40 -410 1 -3 5 -18 9 -35 74 -296
264 -609 495 -819 96 -87 113 -101 183 -147 35 -23 75 -50 89 -59 117 -81 419
-196 564 -215 28 -4 52 -9 55 -10 12 -7 189 -18 260 -17 185 4 344 32 510 89
479 164 865 540 1044 1017 27 70 64 204 72 261 22 145 24 165 23 290 0 134 -3
191 -14 256 -5 24 -9 53 -10 64 -2 11 -8 40 -15 65 -7 25 -14 55 -16 67 -8 42
-66 199 -104 279 -193 409 -560 737 -982 878 -181 60 -290 78 -499 83 -102 2
-187 2 -190 -1z m372 -841 c192 -50 380 -182 493 -348 337 -495 82 -1165 -503
-1321 -78 -21 -110 -24 -214 -22 -132 4 -149 6 -247 38 -249 80 -449 274 -550
533 -49 124 -62 325 -30 469 104 473 586 771 1051 651z"/>
<path d="M2339 5881 c-1 -581 -3 -1067 -4 -1081 -14 -177 -168 -338 -356 -373
-123 -22 -277 20 -370 102 -48 42 -107 133 -115 174 -2 15 -8 37 -12 49 -13
36 -15 92 -16 390 l-1 278 -406 0 -407 0 4 -347 c2 -192 6 -364 9 -383 50
-326 196 -591 435 -791 226 -188 508 -289 806 -289 60 0 120 2 134 4 14 2 47
7 75 11 61 9 202 49 264 76 363 159 621 449 723 814 46 166 46 160 47 1321 l1
1100 -405 0 -405 0 -1 -1055z"/>
<path d="M5057 3404 c-1 -1 -45 -5 -97 -8 -129 -8 -162 -13 -275 -41 -144 -35
-350 -119 -464 -190 -9 -5 -34 -21 -56 -34 -22 -14 -42 -28 -45 -31 -3 -3 -17
-13 -32 -23 -43 -27 -177 -146 -237 -210 -220 -235 -375 -539 -430 -842 -6
-33 -14 -71 -17 -85 -10 -45 -12 -348 -2 -402 31 -180 43 -233 73 -323 55
-168 134 -319 251 -485 33 -47 128 -153 188 -209 27 -25 56 -53 65 -62 9 -8
36 -30 61 -49 25 -19 47 -37 50 -40 13 -15 173 -111 239 -144 121 -61 293
-122 396 -141 17 -3 44 -8 60 -11 87 -17 137 -21 262 -23 636 -9 1214 344
1518 924 65 125 134 328 151 445 3 19 7 46 10 60 9 54 14 140 14 250 -1 131
-4 168 -26 300 -11 62 -45 183 -76 270 -217 604 -802 1051 -1433 1096 -44 3
-95 7 -113 8 -18 1 -33 1 -35 0z m125 -829 c312 -36 595 -272 701 -586 101
-297 20 -633 -208 -864 -110 -112 -187 -161 -350 -224 -119 -45 -337 -50 -475
-11 -392 112 -658 478 -637 875 6 103 7 109 27 185 57 217 225 424 431 533
105 55 227 91 329 96 30 1 56 4 57 5 3 3 49 0 125 -9z"/>
<path d="M1808 3395 c-2 -1 -35 -5 -73 -9 -102 -9 -265 -48 -380 -91 -400
-148 -731 -452 -930 -855 -42 -85 -109 -275 -120 -339 -3 -19 -8 -37 -10 -41
-5 -8 -11 -43 -20 -115 -3 -27 -8 -66 -10 -85 -11 -85 -4 -288 14 -400 86
-525 418 -978 901 -1227 400 -206 892 -235 1320 -76 213 79 392 190 544 335
l50 48 -27 27 c-82 87 -529 528 -536 531 -4 1 -30 -15 -57 -37 -162 -128 -333
-186 -549 -186 -145 1 -231 19 -353 77 -340 158 -537 517 -487 888 4 36 9 67
10 70 29 107 98 263 132 298 7 7 13 17 13 22 0 17 147 157 207 198 230 156
529 195 783 101 75 -27 174 -82 238 -132 l53 -41 282 282 282 282 -60 58
c-220 212 -547 364 -880 407 -51 7 -331 15 -337 10z"/>
</g>
</svg>
