<?xml version="1.0" standalone="no"?>
<!DOCTYPE svg PUBLIC "-//W3C//DTD SVG 20010904//EN"
 "http://www.w3.org/TR/2001/REC-SVG-20010904/DTD/svg10.dtd">
<svg version="1.0" xmlns="http://www.w3.org/2000/svg"
 width="260.000000pt" height="260.000000pt" viewBox="0 0 260.000000 260.000000"
 preserveAspectRatio="xMidYMid meet">
<metadata>
Created by potrace 1.11, written by Peter Selinger 2001-2013
</metadata>
<g transform="translate(0.000000,260.000000) scale(0.100000,-0.100000)"
fill="#000000" stroke="none">
<path d="M0 1300 l0 -1300 1300 0 1300 0 0 1300 0 1300 -1300 0 -1300 0 0
-1300z m1980 316 c0 -291 -4 -515 -11 -562 -52 -375 -346 -575 -808 -551 -209
11 -361 66 -464 168 -69 70 -120 170 -138 272 -12 75 -7 253 8 268 4 4 118 26
253 49 135 22 257 43 271 46 l26 5 -4 -123 c-6 -194 28 -257 139 -265 68 -5
107 18 139 84 l24 48 3 523 3 522 279 0 280 0 0 -484z"/>
</g>
</svg>
