<svg id="Layer_1" data-name="Layer 1" xmlns="http://www.w3.org/2000/svg" viewBox="0 0 480 480"><defs><style>.cls-1{fill:#333;}</style></defs><title>logo</title><path class="cls-1" d="M462.41,118.62c.81,62.5-52.89,116-117.2,114.77-61.33-1.19-114.08-53.53-112.68-117.5C233.88,54.18,286.24,2.14,350.12,3.25,411.29,4.31,462.41,55.91,462.41,118.62Zm-56-.31c0-32.21-26.61-58.83-58.81-58.86s-58.89,26.52-59,58.7c-.07,32.38,26.69,59.48,58.81,59.56S406.44,150.65,406.43,118.31Z"/><path class="cls-1" d="M462.41,361.55c1,62.77-52.83,116.48-117.26,115.2-61.3-1.22-114.05-53.56-112.62-117.55,1.38-61.68,53.73-113.72,117.65-112.59C411.14,247.68,462.41,299.25,462.41,361.55Zm-115,59.52c31.83.1,58.81-26.83,59-58.89.19-32.49-26.39-59.33-58.78-59.38-32.23,0-58.91,26.5-59,58.68C288.58,393.88,315.31,421,347.44,421.07Z"/><path class="cls-1" d="M211.63,279.71,172.9,318.46c-29.58-26-67.62-16.11-85.6,5.73a58.43,58.43,0,0,0,2.76,78c20.77,21.88,57.1,25.73,83.37,2,6.45,6.48,12.91,13,19.42,19.51s12.93,12.74,19.39,19.09c-36,38.64-106.3,48.89-156.32,4.26S4.56,326,53.76,278.56C101.48,232.5,174.45,240,211.63,279.71Z"/><path class="cls-1" d="M44.81,108.35h55.65c0,7.47-.07,14.72,0,22s-.33,14.66.66,21.84c2.19,15.93,15.88,26,32.48,24.62a29.52,29.52,0,0,0,26.84-29.44q.08-68.37,0-136.74V4.38H216V9.67q0,69.1,0,138.2c0,49.09-42.87,88.53-91.81,84.58-45.53-3.67-79.35-40.24-79.35-85.78C44.81,134,44.81,121.39,44.81,108.35Z"/></svg>