<?xml version="1.0" encoding="UTF-8"?>
<svg width="309px" height="61px" viewBox="0 0 309 61" version="1.1" xmlns="http://www.w3.org/2000/svg" xmlns:xlink="http://www.w3.org/1999/xlink">
    <!-- Generator: Sketch 49.3 (51167) - http://www.bohemiancoding.com/sketch -->
    <title>Group 3</title>
    <desc>Created with Sketch.</desc>
    <defs></defs>
    <g id="Projects" stroke="none" stroke-width="1" fill="none" fill-rule="evenodd">
        <g id="Hello-LA" transform="translate(-459.000000, -2273.000000)" fill="#FFFFFF">
            <g id="Group-3" transform="translate(458.506863, 2273.000000)">
                <path d="M203.350814,45 C201.169982,45 199.75648,43.5834739 199.75648,41.2360877 C199.75648,37.1888702 202.421941,33.1821248 202.421941,30.4300169 C202.421941,29.4991568 202.018083,29.0944351 201.331525,29.0944351 C199.554551,29.0944351 196.040989,32.1703204 192.810127,44.5952782 L188.044605,44.5952782 L190.871609,33.9106239 C191.235081,32.5750422 191.43701,31.6037099 191.43701,30.8347386 C191.43701,29.8634064 191.113924,29.0944351 190.225437,29.0944351 C188.367691,29.0944351 184.894515,32.1703204 181.663653,44.5952782 L176.81736,44.5952782 L180.290536,31.4822934 C180.896323,29.1753794 180.775166,28.5278246 180.048222,28.5278246 C179.119349,28.5278246 178.069319,30.2681282 176.898131,32.777403 L175,31.9679595 C176.736588,27.920742 178.755877,25.5733558 181.461724,25.5733558 C183.198312,25.5733558 184.409885,26.8279933 184.409885,29.3372681 C184.409885,30.5109612 184.167571,31.9679595 183.561784,33.8296796 L183.844485,33.9510961 C186.509946,28.2445194 189.498493,25.5328836 192.244726,25.5328836 C194.465943,25.5328836 195.637131,27.0303541 195.637131,29.4586847 C195.637131,30.5919056 195.314045,31.9679595 194.708258,33.8296796 L194.990958,33.9510961 C197.65642,28.2445194 200.644967,25.5328836 203.512357,25.5328836 C205.733574,25.5328836 207.147077,27.3136594 207.147077,29.7419899 C207.147077,33.1821248 204.158529,38.3625632 204.158529,40.8313659 C204.158529,41.4384486 204.400844,41.7217538 204.845087,41.7217538 C205.693189,41.7217538 206.54129,40.4266442 207.631706,37.6340641 L209.529837,38.2411467 C207.914406,43.1382799 205.652803,45 203.350814,45 Z M228.309222,29.7419899 C228.309222,33.3844857 224.51296,36.5008432 216.031947,36.9865093 C215.991561,37.3102867 215.991561,37.6340641 215.991561,37.9173693 C215.991561,41.2765599 217.728149,42.3288364 219.747438,42.3288364 C221.726341,42.3288364 223.705244,40.9932546 225.401447,38.6053963 L227.097649,39.8195616 C225.037975,42.7740304 222.534057,45 218.253165,45 C214.09343,45 211.185654,42.0860034 211.185654,37.6340641 C211.185654,31.4013491 216.556962,25.5328836 222.897529,25.5328836 C226.370705,25.5328836 228.309222,27.2731872 228.309222,29.7419899 Z M222.21097,27.7588533 C219.383966,27.7588533 217.24352,31.6037099 216.395419,35.084317 C222.009042,34.4772344 224.068716,32.2917369 224.068716,29.7824621 C224.068716,28.6492411 223.422544,27.7588533 222.21097,27.7588533 Z M247.492465,40.8313659 C247.492465,41.4384486 247.73478,41.7217538 248.179024,41.7217538 C249.027125,41.7217538 249.875226,40.4266442 250.965642,37.6340641 L252.863773,38.2411467 C251.248342,43.1382799 248.986739,45 246.68475,45 C244.503918,45 243.090416,43.5834739 243.090416,41.2360877 C243.090416,37.1888702 245.755877,33.1821248 245.755877,30.4300169 C245.755877,29.4991568 245.352019,29.0944351 244.665461,29.0944351 C242.807715,29.0944351 239.334539,32.1703204 236.103677,44.5952782 L231.257384,44.5952782 L234.730561,31.4822934 C235.336347,29.1753794 235.21519,28.5278246 234.488246,28.5278246 C233.559373,28.5278246 232.509343,30.2681282 231.338156,32.777403 L229.440024,31.9679595 C231.176612,27.920742 233.195901,25.5733558 235.901748,25.5733558 C237.638336,25.5733558 238.84991,26.8279933 238.84991,29.3372681 C238.84991,30.5109612 238.607595,31.9679595 238.001808,33.8296796 L238.284509,33.9510961 C240.94997,28.2445194 243.938517,25.5328836 246.805907,25.5328836 C249.067511,25.5328836 250.481013,27.3136594 250.481013,29.7419899 C250.481013,33.1821248 247.492465,38.3625632 247.492465,40.8313659 Z M269.098855,28.851602 L263.364075,28.851602 L260.940928,37.7150084 C260.658228,38.7268128 260.456299,39.6576728 260.456299,40.143339 C260.456299,41.2360877 261.0217,41.6003373 261.869801,41.6003373 C263.323689,41.6003373 264.535262,39.8195616 265.666064,37.2293423 L267.604581,37.8768971 C265.625678,43.623946 262.515973,45 260.335142,45 C257.669681,45 255.771549,43.6644182 255.771549,40.9123103 C255.771549,39.7386172 256.215793,38.0387858 256.498493,36.9055649 L258.679325,28.851602 L255.125377,28.851602 L255.771549,26.3827993 L259.325497,26.3827993 L260.658228,21.5261383 L265.464135,21 L264.010247,26.3827993 L269.745027,26.3827993 L269.098855,28.851602 Z M280.851115,25.5328836 C285.495479,25.5328836 288.524412,28.7706577 288.524412,33.3440135 C288.524412,39.6576728 283.47619,45 277.862568,45 C273.218204,45 270.189271,41.7217538 270.189271,37.148398 C270.189271,30.8347386 275.237492,25.5328836 280.851115,25.5328836 Z M283.718505,31.4418212 C283.718505,28.851602 282.628089,27.7588533 280.891501,27.7588533 C277.135624,27.7588533 274.995178,35.1247892 274.995178,39.0505902 C274.995178,41.6408094 276.085594,42.7335582 277.822182,42.7335582 C281.578059,42.7335582 283.718505,35.3676223 283.718505,31.4418212 Z M291.836046,44.5952782 L295.309222,31.4822934 C295.915009,29.1753794 295.793852,28.5278246 295.066908,28.5278246 C294.138035,28.5278246 293.088005,30.2681282 291.916817,32.777403 L290.018686,31.9679595 C291.755274,27.920742 293.774563,25.5733558 296.48041,25.5733558 C298.216998,25.5733558 299.428571,26.8279933 299.428571,29.3372681 C299.428571,30.5109612 299.186257,31.9274874 298.620856,33.7082631 L298.943942,33.8296796 C301.286317,28.4873524 303.224834,25.5328836 306.051838,25.5328836 C307.748041,25.5328836 309,26.7065767 309,28.608769 C309,30.6323777 307.707655,32.2512648 306.092224,32.2512648 C304.678722,32.2512648 303.588306,31.3204047 303.669078,29.6205734 C302.49789,30.1062395 299.590115,33.5463744 296.682339,44.5952782 L291.836046,44.5952782 Z" id="mentor"></path>
                <g id="scout-logo2" transform="translate(0.493137, 0.000000)" fill-rule="nonzero">
                    <path d="M34,15.6892848 L25.0628571,0 L0.070989011,14.6251552 L7.62197802,37.5853613 L0,45.3107152 L8.93714286,61 L33.9252747,46.3748448 L26.3742857,23.4146387 L34,15.6892848 Z M23.8261538,4.67686864 L29.778022,15.125031 L23.9868132,20.9947852 L6.20593407,14.9887013 L23.8261538,4.67686864 Z M4.77120879,18.1167122 L21.3191209,23.702446 L10.2934066,34.8777005 L4.77120879,18.1167122 Z M10.1663736,56.3269183 L4.21450549,45.874969 L10.0057143,40.0052148 L27.7940659,46.0112987 L10.1663736,56.3269183 Z M29.2213187,42.8870747 L12.6808791,37.297554 L23.7065934,26.1298734 L29.2213187,42.8870747 Z" id="Shape"></path>
                    <path d="M60.8421053,23.4411362 C59.7593985,21.8490096 57.943609,20.8249657 55.2593985,20.8249657 C52.575188,20.8249657 51.1052632,22.3722437 51.1052632,24.4838669 C51.1052632,26.2030647 51.9699248,27.2794319 54.1353383,27.9708484 L57.8571429,29.0920643 C63.093985,30.7290395 65,33.3937959 65,37.0938084 C65,42.729787 60.5864662,46 54.4736842,46 C48.0263158,46 45.2105263,42.9465554 44,40.6630123 L47.8947368,37.4787592 C48.9774436,39.5006852 50.4924812,41.1787716 54.4736842,41.1787716 C57.4586466,41.1787716 59.1052632,39.7174536 59.1052632,37.5198704 C59.1052632,35.7147128 58.0225564,34.6794568 55.8157895,33.9917778 L52.1353383,32.8705619 C47.037594,31.2709605 45.2180451,28.4342843 45.2180451,24.8202317 C45.2180451,20.3017317 48.075188,16 55.2593985,16 C60.3233083,16 63.1804511,18.0667746 64.7368421,20.3017317 L60.8421053,23.4411362 Z" id="Shape"></path>
                    <path d="M80.5310493,41.1734898 C82.9915994,41.1734898 84.8288585,39.5783824 85.8290232,37.7249126 L90,40.4395906 C88.1881074,43.7608587 85.0788997,46 80.3208697,46 C72.1021249,46 68,40.3834249 68,31 C68,21.6165751 72.0876297,16 80.3208697,16 C85.0788997,16 88.2062263,18.2466301 90,21.5604094 L85.8290232,24.2750874 C84.8288585,22.4028957 82.9915994,20.8265102 80.5310493,20.8265102 C75.8201285,20.8265102 73.6893428,24.6195706 73.6893428,31.0449326 C73.685719,37.3804294 75.8165047,41.1734898 80.5310493,41.1734898 Z" id="Shape"></path>
                    <path d="M105.479302,46 C96.3381003,46 93,39.5791838 93,31.043055 C93,22.5069262 96.2929399,16 105.520698,16 C114.748457,16 118,22.5069262 118,31.043055 C118,39.5791838 114.537709,46 105.479302,46 Z M105.479302,41.1740921 C110.680265,41.1740921 112.106578,37.0370648 112.106578,31.046799 C112.106578,25.0565331 110.676502,20.8296518 105.520698,20.8296518 C100.364895,20.8296518 98.8934216,25.0116061 98.8934216,31.046799 C98.8934216,37.0819918 100.195544,41.1740921 105.479302,41.1740921 Z" id="Shape"></path>
                    <path d="M122,34.2803596 L122,16 L127.56406,16 L127.56406,34.1473977 C127.56406,38.8694441 129.207654,41.0994048 133,41.0994048 C136.792346,41.0994048 138.43594,38.8694441 138.43594,34.1473977 L138.43594,16 L144,16 L144,34.2803596 C144,42.5467899 139.490183,46 133.018303,46 C126.546423,46 122,42.501203 122,34.2803596 Z" id="Shape"></path>
                    <polygon id="Shape" points="169 16 169 20.7983042 161.307516 20.7983042 161.307516 46 155.688787 46 155.688787 20.7983042 148 20.7983042 148 16"></polygon>
                </g>
            </g>
        </g>
    </g>
</svg>