<?xml version="1.0" encoding="utf-8"?>
<!-- Generator: Adobe Illustrator 21.1.0, SVG Export Plug-In . SVG Version: 6.00 Build 0)  -->
<svg version="1.1" id="Layer_1" xmlns="http://www.w3.org/2000/svg" xmlns:xlink="http://www.w3.org/1999/xlink" x="0px" y="0px"
	 viewBox="0 0 457.7 161.1" style="enable-background:new 0 0 457.7 161.1;" xml:space="preserve">
<style type="text/css">
	.st0{fill:#FFFFFF;}
	.st1{enable-background:new    ;}
</style>
<title>Asset 2</title>
<path class="st0" d="M91,41.4L67.1,0L0.2,38.6l20.2,60.6L0,119.7l23.9,41.4l66.9-38.6L70.6,61.8L91,41.4z M63.8,12.4l15.9,27.6
	L64.2,55.4L16.6,39.6L63.8,12.4z M12.8,47.8l44.3,14.7L27.5,92.1L12.8,47.8z M27.2,148.7l-15.9-27.6l15.5-15.5l47.6,15.9L27.2,148.7
	z M78.2,113.2L33.9,98.5L63.5,69L78.2,113.2z"/>
<g class="st1">
	<path class="st0" d="M160.1,62.3c-2.9-4.3-7.7-7-14.9-7c-7.1,0-11.1,4.1-11.1,9.8c0,4.6,2.3,7.5,8.1,9.3l9.9,3
		c13.9,4.4,19,11.5,19,21.4c0,15.1-11.7,23.8-28,23.8c-17.2,0-24.6-8.2-27.9-14.3l10.4-8.5c2.9,5.4,6.9,9.9,17.5,9.9
		c7.9,0,12.3-3.9,12.3-9.8c0-4.8-2.9-7.6-8.8-9.4l-9.8-3c-13.6-4.3-18.4-11.9-18.4-21.5c0-12.1,7.6-23.6,26.7-23.6
		c13.5,0,21.1,5.5,25.2,11.5L160.1,62.3z"/>
</g>
<g class="st1">
	<path class="st0" d="M214.5,109.6c6.8,0,11.9-4.3,14.6-9.2l11.5,7.3c-5,8.9-13.6,14.9-26.7,14.9c-22.7,0-34-15-34-40.1
		c0-25.2,11.3-40.1,34-40.1c13.1,0,21.8,6,26.7,14.9l-11.5,7.3c-2.8-5-7.8-9.2-14.6-9.2c-13,0-18.9,10.1-18.9,27.3
		C195.6,99.5,201.4,109.6,214.5,109.6z"/>
</g>
<g class="st1">
	<path class="st0" d="M282.6,122.5c-24.3,0-33.2-17.2-33.2-39.9c0-22.9,8.8-40.2,33.3-40.2c24.4,0,33.2,17.4,33.2,40.2
		S306.7,122.5,282.6,122.5z M282.6,109.6c13.8,0,17.6-11.1,17.6-27.1c0-16.1-3.8-27.3-17.5-27.3c-13.6,0-17.6,11.2-17.6,27.3
		C265.1,98.6,268.6,109.6,282.6,109.6z"/>
</g>
<g class="st1">
	<path class="st0" d="M327.5,91.7V43.5h15.2v47.8c0,12.4,4.5,18.3,14.9,18.3c10.4,0,14.9-5.9,14.9-18.3V43.5h15.2v48.1
		c0,21.8-12.3,30.9-30,30.9C339.8,122.5,327.5,113.3,327.5,91.7z"/>
</g>
<g class="st1">
	<path class="st0" d="M456.8,43.5V56H436v65.4h-15.2V56H400V43.5H456.8z"/>
</g>
</svg>
