<svg xmlns="http://www.w3.org/2000/svg" viewBox="0 0 457.73 161.08"><defs><style>.a{fill:#fff;}</style></defs><title>scout-logo</title><path class="a" d="M91,41.43,67.08,0,.19,38.62,20.4,99.25,0,119.65l23.92,41.43L90.8,122.46,70.59,61.83ZM63.77,12.35,79.7,39.94,64.2,55.44,16.61,39.58Zm-51,35.49L57.06,62.59,27.55,92.1Zm14.44,100.9-15.93-27.6,15.5-15.5L74.39,121.5Zm51-35.49L33.94,98.49,63.45,69Z"/><path class="a" d="M160.11,62.31c-2.88-4.26-7.71-7-14.85-7s-11.05,4.14-11.05,9.79c0,4.6,2.3,7.48,8.06,9.33l9.9,3c13.93,4.38,19,11.51,19,21.41,0,15.08-11.74,23.83-28,23.83-17.15,0-24.64-8.17-27.86-14.28l10.36-8.52c2.88,5.41,6.91,9.9,17.5,9.9,7.94,0,12.32-3.91,12.32-9.79,0-4.83-2.88-7.6-8.75-9.44l-9.79-3C123.39,83.26,118.55,75.67,118.55,66c0-12.09,7.6-23.6,26.71-23.6,13.47,0,21.07,5.53,25.21,11.51Z"/><path class="a" d="M214.46,109.63c6.79,0,11.86-4.26,14.62-9.21l11.51,7.25c-5,8.87-13.58,14.85-26.71,14.85-22.68,0-34-15-34-40.06s11.28-40.06,34-40.06c13.13,0,21.76,6,26.71,14.85L229.08,64.5c-2.76-5-7.83-9.21-14.62-9.21-13,0-18.88,10.13-18.88,27.29C195.57,99.5,201.45,109.63,214.46,109.63Z"/><path class="a" d="M282.61,122.52c-24.29,0-33.16-17.15-33.16-39.95s8.75-40.18,33.27-40.18,33.16,17.38,33.16,40.18S306.68,122.52,282.61,122.52Zm0-12.89c13.82,0,17.61-11.05,17.61-27.05s-3.8-27.29-17.5-27.29-17.61,11.17-17.61,27.29S268.57,109.63,282.61,109.63Z"/><path class="a" d="M327.52,91.67V43.55h15.2V91.32c0,12.43,4.49,18.3,14.85,18.3s14.85-5.87,14.85-18.3V43.55h15.2V91.67c0,21.76-12.32,30.85-30,30.85S327.52,113.31,327.52,91.67Z"/><path class="a" d="M456.81,43.55V56H436v65.39h-15.2V56H400V43.55Z"/></svg>