<svg width="481" height="113" viewBox="0 0 481 113" xmlns="http://www.w3.org/2000/svg"><title>Futura Extra Bold Co</title><path d="M11.304 44.3H0L6.594 2.39h19.95l-1.552 9.894h-8.645l-.942 6.058h8.09l-1.551 9.894h-8.09L11.303 44.3zm19.34-29.348h10.86l-2.493 15.785c-.554 3.502-.61 5.058 1.275 5.058 1.94 0 2.438-1.5 2.992-5.058l2.494-15.785h10.86l-2.77 17.286c-1.33 8.671-7.038 12.673-15.017 12.673-8.423 0-12.191-4.669-10.972-12.673l2.77-17.286zM70.929 44.3H60.07l3.269-20.622h-3.103l1.385-8.726h3.103l1.33-8.616h10.861l-1.33 8.616h3.602l-1.385 8.726h-3.602L70.929 44.3zm12.8-29.348h10.862l-2.494 15.785c-.554 3.502-.61 5.058 1.275 5.058 1.94 0 2.438-1.5 2.992-5.058l2.494-15.785h10.86l-2.77 17.286c-1.33 8.671-7.037 12.673-15.017 12.673-8.423 0-12.19-4.669-10.972-12.673l2.77-17.286zm50.095-.612l-1.884 12.173c-.942-.5-2.106-1.056-2.882-1.056-4.045 0-5.153 3.89-5.652 6.948L121.522 44.3h-10.861l4.655-29.348h10.916l-1.496 5.614.055.11c1.829-3.612 5.043-6.502 9.033-6.336zm13.798 21.567c1.385 0 2.216-1.223 2.77-2.668.555-1.501.832-3.169.942-4.002.111-.779.388-2.224.333-3.558-.055-1.278-.443-2.39-1.718-2.39-1.33 0-2.161 1.334-2.77 2.946-.5 1.556-.776 3.39-.943 4.336-.11.833-.277 2.167-.166 3.335.056 1.111.499 2 1.552 2zm16.845-20.955L159.813 44.3h-10.861l1.274-4.836-.11-.111c-1.885 3.112-4.822 5.558-8.368 5.558-7.536 0-7.426-9.838-6.483-15.563.886-5.78 4.045-15.008 11.526-15.008 3.49 0 5.32 2.335 6.206 5.225l.166-.111.277-4.502h11.027zM182.81 44.3l6.595-41.91h21.001l-1.551 9.894h-9.698l-.886 5.836h8.7l-1.607 9.894h-8.7l-.998 6.392h9.698L203.81 44.3H182.81zm55.802 0h-12.579l-1.33-6.948c-1.053 1.834-1.94 3.613-3.159 5.447l-.997 1.5H208.41l11.25-15.118-6.152-14.23h12.413l1.053 6.337h.11c.389-.778.666-1.556 1.054-2.279l2.272-4.057h12.024l-10.86 14.007 7.037 15.34zm17.566 0h-10.861l3.27-20.622h-3.104l1.385-8.726h3.104l1.33-8.616h10.86l-1.33 8.616h3.603l-1.386 8.726h-3.602l-3.27 20.622zm31.586-29.96l-1.884 12.173c-.942-.5-2.106-1.056-2.882-1.056-4.045 0-5.153 3.89-5.652 6.948L275.46 44.3H264.6l4.655-29.348h10.916l-1.496 5.614.055.11c1.829-3.612 5.043-6.502 9.033-6.336zm13.798 21.567c1.385 0 2.216-1.223 2.77-2.668.554-1.501.832-3.169.942-4.002.111-.779.388-2.224.333-3.558-.056-1.278-.443-2.39-1.718-2.39-1.33 0-2.161 1.334-2.77 2.946-.5 1.556-.776 3.39-.943 4.336-.11.833-.277 2.167-.166 3.335.055 1.111.499 2 1.552 2zm16.845-20.955L313.752 44.3H302.89l1.274-4.836-.11-.111c-1.885 3.112-4.822 5.558-8.368 5.558-7.536 0-7.426-9.838-6.484-15.563.887-5.78 4.046-15.008 11.526-15.008 3.492 0 5.32 2.335 6.207 5.225l.166-.111.277-4.502h11.027zM336.748 44.3l6.594-41.91h13.3c6.65 0 13.964 2.89 12.523 11.95-.72 4.725-4.377 8.393-9.143 8.393v.112c5.486.444 7.869 3.89 6.982 9.504-.831 5.17-4.987 11.95-15.072 11.95h-15.184zm12.745-9.06h.942c2.494 0 4.877-1.223 5.32-4.058.443-2.835-1.496-4.002-4.1-4.002h-.887l-1.275 8.06zm2.605-16.564h.665c2.327 0 4.655-.945 5.042-3.669.444-2.5-1.108-3.557-3.435-3.557h-1.108l-1.164 7.226zm35.132-4.336c9.365 0 12.524 7.06 11.249 15.286-1.33 8.226-6.705 15.285-16.07 15.285s-12.523-7.06-11.193-15.285c1.274-8.227 6.65-15.286 16.014-15.286zm-1.274 8.171c-2.605 0-3.658 4.113-4.101 7.115-.499 3.001-.72 7.114 1.884 7.114s3.602-4.113 4.1-7.114c.444-3.002.721-7.115-1.883-7.115zM411.612 44.3h-10.861L407.733 0h10.861l-6.982 44.3zm19.783-8.727c2.382 0 3.103-3.057 3.546-6.17.499-2.89.61-6.003-1.385-6.003-2.272 0-3.325 2.835-3.824 6.059-.443 3.001-.443 6.114 1.663 6.114zm.665 8.727l.83-3.836-.11-.11c-1.829 2.667-3.99 4.557-7.37 4.557-7.647 0-7.869-9.116-6.927-15.007.942-6.059 3.88-15.564 11.748-15.564 3.38 0 5.264 1.89 6.095 4.836l.111-.111c.167-1.334.277-2.668.444-4.002L439.263 0h10.861l-6.982 44.3H432.06zM29.48 58.25l-1.94 12.007c-1.33-1.557-2.548-2.446-4.876-2.446-5.874 0-8.312 6.503-9.032 11.117-.776 4.891-.333 11.116 5.32 11.116 2.548 0 4.322-1 6.427-2.668L22.83 99.104c-2.438 1-4.544 1.501-7.037 1.501-9.254 0-16.015-7.059-13.743-21.4C4.987 60.42 18.342 57.25 23.828 57.25c1.995 0 3.934.278 5.652 1zm16.79 11.673c9.365 0 12.524 7.06 11.25 15.286-1.33 8.226-6.706 15.285-16.07 15.285-9.366 0-12.524-7.06-11.194-15.285 1.274-8.227 6.65-15.286 16.014-15.286zm-1.274 8.17c-2.605 0-3.657 4.114-4.1 7.116-.5 3.001-.721 7.114 1.883 7.114 2.605 0 3.602-4.113 4.1-7.114.444-3.002.721-7.115-1.883-7.115zm30.311-7.558l-1.164 5.447.111.111c1.552-3.168 4.821-6.17 8.423-6.17 6.262 0 6.982 5.336 6.151 10.617L85.78 99.882H74.92l2.327-14.84c.387-2.501.498-4.28-1.33-4.28-2.106 0-2.55 2-3.048 5.002l-2.217 14.118h-10.86l4.654-29.347h10.861zm30.256 20.62c2.383 0 3.103-3.056 3.546-6.169.499-2.89.61-6.003-1.385-6.003-2.272 0-3.325 2.835-3.824 6.059-.443 3.001-.443 6.114 1.663 6.114zm.665 8.727l.831-3.835-.11-.11c-1.83 2.667-3.99 4.557-7.37 4.557-7.648 0-7.87-9.116-6.928-15.008.943-6.058 3.88-15.563 11.748-15.563 3.38 0 5.264 1.89 6.096 4.836l.11-.111c.167-1.334.278-2.668.444-4.002l2.383-15.063h10.86l-6.981 44.3h-11.083zm29.424-18.286h5.043c.222-1.612-.055-3.724-1.995-3.724-1.828 0-2.881 2.223-3.048 3.724zm3.602 8.337h10.64c-2.272 6.781-8.035 10.56-14.574 10.56-9.032 0-12.524-6.113-11.194-14.729 1.33-8.393 7.315-15.84 16.292-15.84 4.488 0 7.48 1.89 9.143 4.78 2.217 3.835 1.829 8.17 1.108 12.783H134.71c-.277 1.724-.443 4.503 1.829 4.503 1.22 0 2.327-.89 2.715-2.057zm29.591-19.398l-1.164 5.447.111.111c1.552-3.168 4.821-6.17 8.423-6.17 6.262 0 6.982 5.336 6.151 10.617l-3.048 19.342h-10.86l2.327-14.84c.388-2.501.498-4.28-1.33-4.28-2.106 0-2.55 2-3.048 5.002l-2.217 14.118h-10.86l4.654-29.347h10.861zm15.46 26.902l5.265-8.115c1.053 1.39 2.937 3.057 4.932 3.057.942 0 2.216-.445 2.382-1.501.167-1.056-.72-1.667-2.493-2.334-3.99-1.501-7.038-3.725-6.262-8.727.942-6.059 6.483-9.894 13.3-9.894 2.936 0 6.261.945 8.588 2.39l-4.987 7.949c-1.108-1.168-2.327-2.613-4.156-2.613-.776 0-1.662.5-1.828 1.445-.222 1.501 1.773 2.28 2.826 2.724 3.712 1.5 6.538 3.613 5.818 8.393-1.053 6.614-7.315 10.283-13.355 10.283-3.99 0-6.87-1.167-10.03-3.057zm38.9-15.841h5.043c.222-1.612-.055-3.724-1.994-3.724-1.829 0-2.882 2.223-3.048 3.724zm3.603 8.337h10.64c-2.273 6.781-8.036 10.56-14.575 10.56-9.032 0-12.523-6.113-11.193-14.729 1.33-8.393 7.314-15.84 16.291-15.84 4.489 0 7.481 1.89 9.144 4.78 2.216 3.835 1.828 8.17 1.108 12.783h-15.96c-.276 1.724-.442 4.503 1.83 4.503 1.219 0 2.327-.89 2.715-2.057zm27.984 1.223c2.382 0 3.103-3.057 3.546-6.17.499-2.89.61-6.003-1.385-6.003-2.272 0-3.325 2.835-3.824 6.059-.443 3.001-.443 6.114 1.663 6.114zm.665 8.726l.83-3.835-.11-.11c-1.829 2.667-3.99 4.557-7.37 4.557-7.647 0-7.869-9.116-6.927-15.008.942-6.058 3.88-15.563 11.748-15.563 3.38 0 5.264 1.89 6.095 4.836l.111-.111c.166-1.334.277-2.668.444-4.002l2.382-15.063h10.861l-6.982 44.3h-11.082zm36.13-20.954c1.606-10.228 7.868-21.678 19.339-21.678 11.47 0 14.185 11.45 12.578 21.678-1.607 10.227-7.924 21.677-19.394 21.677-11.47 0-14.13-11.45-12.524-21.677zm11.525 0c-.443 2.612-1.607 11.116 2.66 11.116s5.763-8.504 6.206-11.116c.388-2.613 1.552-11.117-2.715-11.117-4.267 0-5.763 8.504-6.15 11.117zm36.573 12.228c2.494 0 3.38-4.502 3.602-6.114.333-1.834.831-6.059-1.884-6.059-2.217 0-3.103 4.502-3.38 6.003-.222 1.723-.887 6.17 1.662 6.17zm-14.463 8.726l6.982-44.3h10.861l-2.382 15.064-.776 4.002.11.111c1.718-2.946 4.101-4.836 7.482-4.836 7.924 0 7.868 9.505 6.926 15.563-.665 4.058-3.214 15.008-11.747 15.008-3.325 0-4.821-1.89-5.874-4.558l-.111.111-.388 3.835h-11.083zm42.392 0h-10.861l6.982-44.3h10.86l-6.981 44.3zm16.735 0h-10.862l4.655-29.347h10.861l-4.654 29.347zM384.07 67.7c-3.49 0-5.929-2.835-5.375-6.392.554-3.446 3.824-6.337 7.26-6.337 3.49 0 5.984 2.724 5.43 6.281-.554 3.502-3.768 6.448-7.315 6.448zm20.116 23.623c2.05 0 2.992-3.78 3.435-6.392.388-2.668.554-6.059-1.551-6.059-2.05 0-3.104 3.168-3.547 5.836-.443 2.946-.61 6.615 1.663 6.615zm4.987-16.73l.388-4.058h10.86L413.719 113h-10.861l1.828-11.561c.277-1.834.72-3.613 1.109-5.447l-.111-.112c-1.94 2.724-4.323 4.614-7.647 4.614-7.481 0-7.814-9.505-6.76-15.285.941-5.892 4.488-15.286 11.913-15.286 3.27 0 5.098 1.946 5.874 4.78l.11-.11zm16.846-4.058h10.86l-2.493 15.785c-.554 3.502-.61 5.058 1.274 5.058 1.94 0 2.439-1.5 2.993-5.058l2.493-15.785h10.861l-2.77 17.286c-1.33 8.67-7.038 12.673-15.017 12.673-8.423 0-12.191-4.67-10.972-12.673l2.77-17.286zm39.399 11.06h5.042c.222-1.611-.055-3.723-1.995-3.723-1.828 0-2.881 2.223-3.047 3.724zm3.601 8.338h10.64c-2.272 6.781-8.035 10.56-14.574 10.56-9.032 0-12.523-6.113-11.193-14.729 1.33-8.393 7.314-15.84 16.291-15.84 4.489 0 7.481 1.89 9.143 4.78 2.217 3.835 1.829 8.17 1.109 12.783h-15.96c-.277 1.724-.443 4.503 1.83 4.503 1.218 0 2.327-.89 2.714-2.057z" fill="#FFF" fill-rule="evenodd"/></svg>