<?xml version="1.0" encoding="UTF-8"?>
<svg width="481px" height="113px" viewBox="0 0 481 113" version="1.1" xmlns="http://www.w3.org/2000/svg" xmlns:xlink="http://www.w3.org/1999/xlink">
    <!-- Generator: Sketch 49.3 (51167) - http://www.bohemiancoding.com/sketch -->
    <title>Futura Extra Bold Co</title>
    <desc>Created with Sketch.</desc>
    <defs></defs>
    <g id="Projects" stroke="none" stroke-width="1" fill="none" fill-rule="evenodd">
        <g id="This-Girl-Codes." transform="translate(-520.000000, -1161.000000)" fill="#FFFFFF">
            <path d="M531.304368,1205.29956 L520,1205.29956 L526.594215,1163.39006 L546.543101,1163.39006 L544.991521,1173.28382 L536.347003,1173.28382 L535.404973,1179.34235 L543.495354,1179.34235 L541.943774,1189.2361 L533.853393,1189.2361 L531.304368,1205.29956 Z M550.643705,1175.9518 L561.504765,1175.9518 L559.011154,1191.73733 C558.457018,1195.23906 558.401605,1196.79538 560.285666,1196.79538 C562.225141,1196.79538 562.723863,1195.29464 563.277999,1191.73733 L565.77161,1175.9518 L576.63267,1175.9518 L573.861991,1193.23807 C572.532065,1201.909 566.824467,1205.91097 558.844913,1205.91097 C550.42205,1205.91097 546.653928,1201.24201 547.873026,1193.23807 L550.643705,1175.9518 Z M590.929371,1205.29956 L580.068311,1205.29956 L583.337712,1184.67831 L580.234552,1184.67831 L581.619891,1175.9518 L584.723051,1175.9518 L586.052977,1167.33645 L596.914037,1167.33645 L595.584111,1175.9518 L599.185993,1175.9518 L597.800654,1184.67831 L594.198772,1184.67831 L590.929371,1205.29956 Z M603.729906,1175.9518 L614.590966,1175.9518 L612.097355,1191.73733 C611.543219,1195.23906 611.487806,1196.79538 613.371867,1196.79538 C615.311342,1196.79538 615.810064,1195.29464 616.3642,1191.73733 L618.857811,1175.9518 L629.718871,1175.9518 L626.948192,1193.23807 C625.618266,1201.909 619.910669,1205.91097 611.931114,1205.91097 C603.508252,1205.91097 599.740129,1201.24201 600.959227,1193.23807 L603.729906,1175.9518 Z M653.823774,1175.34038 L651.939713,1187.51303 C650.997682,1187.01279 649.833997,1186.45696 649.058207,1186.45696 C645.013016,1186.45696 643.904745,1190.34776 643.406023,1193.40482 L641.521961,1205.29956 L630.660901,1205.29956 L635.315641,1175.9518 L646.232115,1175.9518 L644.735948,1181.56567 L644.791362,1181.67683 C646.62001,1178.06394 649.833997,1175.17364 653.823774,1175.34038 Z M667.621753,1196.90654 C669.007092,1196.90654 669.838296,1195.68372 670.392432,1194.23856 C670.946567,1192.73783 671.223635,1191.07034 671.334462,1190.2366 C671.44529,1189.45844 671.722357,1188.01328 671.666944,1186.67929 C671.61153,1185.40089 671.223635,1184.28923 669.949123,1184.28923 C668.619197,1184.28923 667.787994,1185.62322 667.178445,1187.23512 C666.679722,1188.79144 666.402655,1190.62568 666.236414,1191.57059 C666.125587,1192.40433 665.959346,1193.73832 666.070173,1194.90556 C666.125587,1196.01722 666.568895,1196.90654 667.621753,1196.90654 Z M684.467479,1175.9518 L679.812739,1205.29956 L668.951679,1205.29956 L670.226191,1200.46385 L670.115364,1200.35268 C668.231302,1203.46532 665.294383,1205.91097 661.747915,1205.91097 C654.211669,1205.91097 654.322496,1196.0728 655.264527,1190.34776 C656.151144,1184.56714 659.309718,1175.34038 666.79055,1175.34038 C670.281605,1175.34038 672.110252,1177.67486 672.99687,1180.56517 L673.16311,1180.45401 L673.440178,1175.9518 L684.467479,1175.9518 Z M702.809371,1205.29956 L709.403586,1163.39006 L730.405329,1163.39006 L728.853749,1173.28382 L719.156374,1173.28382 L718.269757,1179.12002 L726.969688,1179.12002 L725.362694,1189.01377 L716.662763,1189.01377 L715.665319,1195.4058 L725.362694,1195.4058 L723.811114,1205.29956 L702.809371,1205.29956 Z M758.610837,1205.29956 L746.031956,1205.29956 L744.70203,1198.3517 C743.649173,1200.18593 742.762555,1201.96458 741.543457,1203.79882 L740.546013,1205.29956 L728.410441,1205.29956 L739.659395,1190.18101 L733.508489,1175.9518 L745.921129,1175.9518 L746.973987,1182.28824 L747.084814,1182.28824 C747.472709,1181.51008 747.749777,1180.73192 748.137672,1180.00935 L750.409628,1175.9518 L762.434373,1175.9518 L751.573313,1189.95868 L758.610837,1205.29956 Z M776.176939,1205.29956 L765.315879,1205.29956 L768.58528,1184.67831 L765.48212,1184.67831 L766.867459,1175.9518 L769.970619,1175.9518 L771.300545,1167.33645 L782.161604,1167.33645 L780.831679,1175.9518 L784.433561,1175.9518 L783.048222,1184.67831 L779.446339,1184.67831 L776.176939,1205.29956 Z M807.762674,1175.34038 L805.878613,1187.51303 C804.936582,1187.01279 803.772897,1186.45696 802.997107,1186.45696 C798.951916,1186.45696 797.843645,1190.34776 797.344923,1193.40482 L795.460861,1205.29956 L784.599802,1205.29956 L789.254542,1175.9518 L800.171015,1175.9518 L798.674849,1181.56567 L798.730262,1181.67683 C800.55891,1178.06394 803.772897,1175.17364 807.762674,1175.34038 Z M821.560653,1196.90654 C822.945993,1196.90654 823.777196,1195.68372 824.331332,1194.23856 C824.885468,1192.73783 825.162536,1191.07034 825.273363,1190.2366 C825.38419,1189.45844 825.661258,1188.01328 825.605844,1186.67929 C825.550431,1185.40089 825.162536,1184.28923 823.888023,1184.28923 C822.558098,1184.28923 821.726894,1185.62322 821.117345,1187.23512 C820.618623,1188.79144 820.341555,1190.62568 820.175314,1191.57059 C820.064487,1192.40433 819.898246,1193.73832 820.009073,1194.90556 C820.064487,1196.01722 820.507796,1196.90654 821.560653,1196.90654 Z M838.406379,1175.9518 L833.751639,1205.29956 L822.890579,1205.29956 L824.165091,1200.46385 L824.054264,1200.35268 C822.170203,1203.46532 819.233283,1205.91097 815.686815,1205.91097 C808.150569,1205.91097 808.261396,1196.0728 809.203427,1190.34776 C810.090044,1184.56714 813.248618,1175.34038 820.72945,1175.34038 C824.220505,1175.34038 826.049153,1177.67486 826.93577,1180.56517 L827.102011,1180.45401 L827.379078,1175.9518 L838.406379,1175.9518 Z M856.748271,1205.29956 L863.342486,1163.39006 L876.641743,1163.39006 C883.291371,1163.39006 890.605963,1166.28037 889.16521,1175.34038 C888.444834,1180.06493 884.787538,1183.7334 880.021971,1183.7334 L880.021971,1183.84456 C885.507914,1184.28923 887.890698,1187.73537 887.004081,1193.34924 C886.172877,1198.51845 882.016859,1205.29956 871.931589,1205.29956 L856.748271,1205.29956 Z M869.493392,1196.23955 L870.435423,1196.23955 C872.929034,1196.23955 875.311817,1195.01672 875.755126,1192.182 C876.198434,1189.34727 874.258959,1188.18003 871.654522,1188.18003 L870.767904,1188.18003 L869.493392,1196.23955 Z M872.09783,1179.67585 L872.762793,1179.67585 C875.090163,1179.67585 877.417533,1178.73094 877.805428,1176.00738 C878.248737,1173.50615 876.697157,1172.45007 874.369787,1172.45007 L873.261515,1172.45007 L872.09783,1179.67585 Z M907.230034,1175.34038 C916.594928,1175.34038 919.753501,1182.39941 918.478989,1190.62568 C917.149063,1198.85194 911.773947,1205.91097 902.409053,1205.91097 C893.04416,1205.91097 889.885586,1198.85194 891.215512,1190.62568 C892.490024,1182.39941 897.865141,1175.34038 907.230034,1175.34038 Z M905.955522,1183.51107 C903.351084,1183.51107 902.298226,1187.6242 901.854918,1190.62568 C901.356196,1193.62715 901.134541,1197.74029 903.738979,1197.74029 C906.343417,1197.74029 907.340861,1193.62715 907.839583,1190.62568 C908.282892,1187.6242 908.55996,1183.51107 905.955522,1183.51107 Z M931.612005,1205.29956 L920.750945,1205.29956 L927.733055,1161 L938.594115,1161 L931.612005,1205.29956 Z M951.39465,1196.57304 C953.777434,1196.57304 954.49781,1193.51599 954.941119,1190.40334 C955.439841,1187.51303 955.550668,1184.40039 953.55578,1184.40039 C951.283823,1184.40039 950.230965,1187.23512 949.732243,1190.45893 C949.288935,1193.4604 949.288935,1196.57304 951.39465,1196.57304 Z M952.059613,1205.29956 L952.890817,1201.46434 L952.77999,1201.35317 C950.951342,1204.02115 948.790212,1205.91097 945.409985,1205.91097 C937.762912,1205.91097 937.541258,1196.79538 938.483288,1190.90359 C939.425319,1184.84506 942.362238,1175.34038 950.230965,1175.34038 C953.611193,1175.34038 955.495255,1177.2302 956.326458,1180.17609 L956.437285,1180.06493 C956.603526,1178.73094 956.714353,1177.39695 956.880594,1176.06296 L959.263377,1161 L970.124437,1161 L963.142327,1205.29956 L952.059613,1205.29956 Z M549.48002,1219.25086 L547.540545,1231.25676 C546.210619,1229.70044 544.991521,1228.81112 542.664151,1228.81112 C536.790312,1228.81112 534.352115,1235.31431 533.631738,1239.92769 C532.855948,1244.81899 533.299257,1251.04427 538.951441,1251.04427 C541.500466,1251.04427 543.2737,1250.04378 545.379416,1248.37629 L542.830391,1260.10428 C540.392194,1261.10477 538.286478,1261.60502 535.792868,1261.60502 C526.538801,1261.60502 519.778346,1254.54599 522.050302,1240.20561 C524.987221,1221.41859 538.341892,1218.25037 543.827836,1218.25037 C545.822724,1218.25037 547.762199,1218.52828 549.48002,1219.25086 Z M566.270332,1230.92327 C575.635225,1230.92327 578.793799,1237.98229 577.519287,1246.20856 C576.189361,1254.43483 570.814245,1261.49385 561.449351,1261.49385 C552.084458,1261.49385 548.925884,1254.43483 550.25581,1246.20856 C551.530322,1237.98229 556.905438,1230.92327 566.270332,1230.92327 Z M564.99582,1239.09395 C562.391382,1239.09395 561.338524,1243.20708 560.895215,1246.20856 C560.396493,1249.21003 560.174839,1253.32317 562.779277,1253.32317 C565.383715,1253.32317 566.381159,1249.21003 566.879881,1246.20856 C567.32319,1243.20708 567.600257,1239.09395 564.99582,1239.09395 Z M595.307043,1231.53468 L594.143358,1236.9818 L594.254185,1237.09297 C595.805765,1233.92474 599.075166,1230.92327 602.677048,1230.92327 C608.938781,1230.92327 609.659158,1236.25922 608.827954,1241.5396 L605.780208,1260.88244 L594.919148,1260.88244 L597.246518,1246.04181 C597.634413,1243.54058 597.74524,1241.76193 595.916592,1241.76193 C593.810877,1241.76193 593.367568,1243.76291 592.868846,1246.76439 L590.652303,1260.88244 L579.791243,1260.88244 L584.445983,1231.53468 L595.307043,1231.53468 Z M625.562853,1252.15593 C627.945636,1252.15593 628.666013,1249.09887 629.109321,1245.98623 C629.608043,1243.09592 629.718871,1239.98328 627.723982,1239.98328 C625.452026,1239.98328 624.399168,1242.818 623.900446,1246.04181 C623.457137,1249.04329 623.457137,1252.15593 625.562853,1252.15593 Z M626.227816,1260.88244 L627.059019,1257.04722 L626.948192,1256.93606 C625.119544,1259.60403 622.958415,1261.49385 619.578187,1261.49385 C611.931114,1261.49385 611.70946,1252.37826 612.651491,1246.48647 C613.593521,1240.42794 616.530441,1230.92327 624.399168,1230.92327 C627.779396,1230.92327 629.663457,1232.81308 630.494661,1235.75898 L630.605488,1235.64781 C630.771728,1234.31382 630.882556,1232.97983 631.048796,1231.64584 L633.43158,1216.58288 L644.29264,1216.58288 L637.31053,1260.88244 L626.227816,1260.88244 Z M655.652422,1242.59567 L660.695057,1242.59567 C660.916711,1240.98377 660.639643,1238.87162 658.700168,1238.87162 C656.87152,1238.87162 655.818663,1241.09493 655.652422,1242.59567 Z M659.254304,1250.9331 L669.89371,1250.9331 C667.621753,1257.71422 661.858742,1261.49385 655.31994,1261.49385 C646.287528,1261.49385 642.796473,1255.37973 644.126399,1246.76439 C645.456325,1238.37137 651.44099,1230.92327 660.417989,1230.92327 C664.906488,1230.92327 667.898821,1232.81308 669.561228,1235.70339 C671.777771,1239.53861 671.389876,1243.87408 670.6695,1248.48746 L654.710391,1248.48746 C654.433323,1250.21053 654.267083,1252.98967 656.539039,1252.98967 C657.758138,1252.98967 658.866409,1252.10034 659.254304,1250.9331 Z M688.845151,1231.53468 L687.681466,1236.9818 L687.792293,1237.09297 C689.343873,1233.92474 692.613274,1230.92327 696.215156,1230.92327 C702.476889,1230.92327 703.197266,1236.25922 702.366062,1241.5396 L699.318316,1260.88244 L688.457256,1260.88244 L690.784626,1246.04181 C691.172521,1243.54058 691.283348,1241.76193 689.4547,1241.76193 C687.348984,1241.76193 686.905676,1243.76291 686.406954,1246.76439 L684.190411,1260.88244 L673.329351,1260.88244 L677.984091,1231.53468 L688.845151,1231.53468 Z M704.305537,1258.43679 L709.569826,1250.32169 C710.622684,1251.71126 712.506746,1253.37875 714.501634,1253.37875 C715.443665,1253.37875 716.718177,1252.93409 716.884418,1251.87801 C717.050658,1250.82194 716.164041,1250.21053 714.390807,1249.54353 C710.40103,1248.04279 707.353284,1245.81948 708.129074,1240.81702 C709.071104,1234.75848 714.612461,1230.92327 721.428331,1230.92327 C724.36525,1230.92327 727.690064,1231.86818 730.017434,1233.31333 L725.030213,1241.26168 C723.921941,1240.09444 722.702843,1238.64929 720.874195,1238.64929 C720.098405,1238.64929 719.211788,1239.14953 719.045547,1240.09444 C718.823893,1241.59518 720.818781,1242.37334 721.871639,1242.818 C725.584348,1244.31874 728.410441,1246.43089 727.690064,1251.21102 C726.637206,1257.82538 720.375473,1261.49385 714.335394,1261.49385 C710.345616,1261.49385 707.464111,1260.32661 704.305537,1258.43679 Z M743.205864,1242.59567 L748.248499,1242.59567 C748.470153,1240.98377 748.193085,1238.87162 746.25361,1238.87162 C744.424963,1238.87162 743.372105,1241.09493 743.205864,1242.59567 Z M746.807746,1250.9331 L757.447152,1250.9331 C755.175195,1257.71422 749.412184,1261.49385 742.873383,1261.49385 C733.840971,1261.49385 730.349916,1255.37973 731.679841,1246.76439 C733.009767,1238.37137 738.994433,1230.92327 747.971431,1230.92327 C752.45993,1230.92327 755.452263,1232.81308 757.11467,1235.70339 C759.331213,1239.53861 758.943318,1243.87408 758.222942,1248.48746 L742.263833,1248.48746 C741.986765,1250.21053 741.820525,1252.98967 744.092481,1252.98967 C745.31158,1252.98967 746.419851,1252.10034 746.807746,1250.9331 Z M774.791599,1252.15593 C777.174383,1252.15593 777.894759,1249.09887 778.338068,1245.98623 C778.83679,1243.09592 778.947617,1239.98328 776.952729,1239.98328 C774.680772,1239.98328 773.627914,1242.818 773.129192,1246.04181 C772.685884,1249.04329 772.685884,1252.15593 774.791599,1252.15593 Z M775.456562,1260.88244 L776.287766,1257.04722 L776.176939,1256.93606 C774.348291,1259.60403 772.187162,1261.49385 768.806934,1261.49385 C761.159861,1261.49385 760.938207,1252.37826 761.880237,1246.48647 C762.822268,1240.42794 765.759187,1230.92327 773.627914,1230.92327 C777.008142,1230.92327 778.892204,1232.81308 779.723407,1235.75898 L779.834234,1235.64781 C780.000475,1234.31382 780.111302,1232.97983 780.277543,1231.64584 L782.660327,1216.58288 L793.521386,1216.58288 L786.539277,1260.88244 L775.456562,1260.88244 Z M811.586211,1239.92769 C813.193204,1229.70044 819.454938,1218.25037 830.925547,1218.25037 C842.396156,1218.25037 845.111421,1229.70044 843.504428,1239.92769 C841.897434,1250.15494 835.580287,1261.60502 824.109678,1261.60502 C812.639068,1261.60502 809.979217,1250.15494 811.586211,1239.92769 Z M823.112233,1239.92769 C822.668925,1242.54009 821.50524,1251.04427 825.772085,1251.04427 C830.03893,1251.04427 831.535096,1242.54009 831.978405,1239.92769 C832.3663,1237.3153 833.529985,1228.81112 829.26314,1228.81112 C824.996295,1228.81112 823.500128,1237.3153 823.112233,1239.92769 Z M859.68519,1252.15593 C862.178801,1252.15593 863.065418,1247.65371 863.287072,1246.04181 C863.619554,1244.20758 864.118276,1239.98328 861.403011,1239.98328 C859.186468,1239.98328 858.299851,1244.48549 858.022783,1245.98623 C857.801129,1247.7093 857.136166,1252.15593 859.68519,1252.15593 Z M845.222248,1260.88244 L852.204358,1216.58288 L863.065418,1216.58288 L860.682635,1231.64584 L859.906845,1235.64781 L860.017672,1235.75898 C861.735492,1232.81308 864.118276,1230.92327 867.498504,1230.92327 C875.422644,1230.92327 875.367231,1240.42794 874.4252,1246.48647 C873.760237,1250.54402 871.211213,1261.49385 862.677523,1261.49385 C859.352709,1261.49385 857.856542,1259.60403 856.803685,1256.93606 L856.692857,1257.04722 L856.304962,1260.88244 L845.222248,1260.88244 Z M887.61363,1260.88244 L876.75257,1260.88244 L883.73468,1216.58288 L894.59574,1216.58288 L887.61363,1260.88244 Z M904.348528,1260.88244 L893.487469,1260.88244 L898.142209,1231.53468 L909.003268,1231.53468 L904.348528,1260.88244 Z M904.071461,1228.69995 C900.580406,1228.69995 898.142209,1225.86522 898.696344,1222.30792 C899.25048,1218.86178 902.519881,1215.97147 905.955522,1215.97147 C909.446577,1215.97147 911.940188,1218.69503 911.386052,1222.25234 C910.831916,1225.75406 907.617929,1228.69995 904.071461,1228.69995 Z M924.186587,1252.32268 C926.236889,1252.32268 927.17892,1248.54304 927.622228,1245.93064 C928.010123,1243.26267 928.176364,1239.87211 926.070648,1239.87211 C924.020346,1239.87211 922.967488,1243.04033 922.52418,1245.70831 C922.080871,1248.65421 921.91463,1252.32268 924.186587,1252.32268 Z M929.173808,1235.59223 L929.561703,1231.53468 L940.422763,1231.53468 L933.717721,1274 L922.856661,1274 L924.685309,1262.43876 C924.962377,1260.60453 925.405685,1258.82587 925.79358,1256.99164 L925.682753,1256.88047 C923.743278,1259.60403 921.360495,1261.49385 918.035681,1261.49385 C910.554848,1261.49385 910.222367,1251.98918 911.275225,1246.20856 C912.217256,1240.31677 915.763724,1230.92327 923.189143,1230.92327 C926.458543,1230.92327 928.287191,1232.86867 929.062981,1235.70339 L929.173808,1235.59223 Z M946.019534,1231.53468 L956.880594,1231.53468 L954.386983,1247.32022 C953.832847,1250.82194 953.777434,1252.37826 955.661495,1252.37826 C957.60097,1252.37826 958.099692,1250.87752 958.653828,1247.32022 L961.147439,1231.53468 L972.008499,1231.53468 L969.23782,1248.82095 C967.907894,1257.49188 962.200297,1261.49385 954.220742,1261.49385 C945.79788,1261.49385 942.029757,1256.82489 943.248855,1248.82095 L946.019534,1231.53468 Z M985.418583,1242.59567 L990.461218,1242.59567 C990.682872,1240.98377 990.405804,1238.87162 988.466329,1238.87162 C986.637681,1238.87162 985.584824,1241.09493 985.418583,1242.59567 Z M989.020465,1250.9331 L999.659871,1250.9331 C997.387914,1257.71422 991.624903,1261.49385 985.086101,1261.49385 C976.053689,1261.49385 972.562634,1255.37973 973.89256,1246.76439 C975.222486,1238.37137 981.207151,1230.92327 990.18415,1230.92327 C994.672649,1230.92327 997.664982,1232.81308 999.327389,1235.70339 C1001.54393,1239.53861 1001.15604,1243.87408 1000.43566,1248.48746 L984.476552,1248.48746 C984.199484,1250.21053 984.033244,1252.98967 986.3052,1252.98967 C987.524299,1252.98967 988.63257,1252.10034 989.020465,1250.9331 Z" id="Futura-Extra-Bold-Co"></path>
        </g>
    </g>
</svg>