<svg xmlns="http://www.w3.org/2000/svg" viewBox="0 0 500 500"><defs><style>.a{fill:#fff}</style></defs><title>thisGrilCodesLogoFinal</title><path class="a" d="M6.6 145.28L23 43.18H2.59l5.29-33h79l-5.29 33H60.22l-16.41 102.1zm120.26 0l7.55-48c1.26-8.09 1.8-13.84-4.31-13.84-7 0-8.45 7.37-9.89 16.18L113 145.28H77.77L100.43 2h35.24l-8.27 51.6c-.72 4.85-2.16 9.53-3.05 14.38l.36.36c5-10.25 15.64-20 27.33-20 20.32 0 22.66 17.26 20 34.34l-9.89 62.57zm48.54 0l15.1-94.93h35.24l-15.1 94.93zM192.3 20.5C194.1 9.35 204.7 0 215.85 0c11.33 0 19.42 8.81 17.62 20.32-1.8 11.33-12.23 20.86-23.73 20.86-11.33-.01-19.24-9.18-17.44-20.68zm47.28 91.23c3.42 4.49 9.53 9.89 16 9.89 3.06 0 7.19-1.44 7.73-4.85s-2.34-5.39-8.09-7.55c-12.95-4.85-22.83-12-20.32-28.23 3.05-19.6 21-32 43.15-32a56.32 56.32 0 0 1 27.87 7.73l-16.18 25.7c-3.6-3.78-7.55-8.45-13.48-8.45a5.92 5.92 0 0 0-5.93 4.67c-.72 4.85 5.75 7.37 9.17 8.81 12 4.85 21.22 11.69 18.88 27.15C295 136 274.64 147.87 255 147.87c-12.95 0-22.29-3.78-32.54-9.89zM110.25 243.08l-.74 5.75c-5.36 33.44-18.87 75-62.52 75-41.07 0-48.65-35.06-43.1-69.4 5.55-33.62 24.6-70.84 65.49-70.84 22.57 0 37.18 13.84 42.18 33.44l-38.68 13.1c.55-5.39-1.67-13.84-8.33-13.84-17.39 0-21.09 31.1-22.75 41.35-.93 9.71-5.55 33.44 9.06 33.44 10 0 15-11.51 16.09-19.42H53.09l4.62-28.59zm.82 80.5l15.1-94.93h35.24l-15.1 94.93zM128 198.8c1.8-11.15 12.41-20.5 23.56-20.5 11.33 0 19.42 8.81 17.62 20.32-1.8 11.33-12.23 20.86-23.73 20.86-11.36-.01-19.27-9.18-17.45-20.68zM229.74 266c-3.06-1.62-6.83-3.42-9.35-3.42-13.13 0-16.72 12.59-18.34 22.48l-6.11 38.48h-35.25l15.1-94.93h35.42l-4.85 18.16.18.36c5.93-11.69 16.36-21 29.31-20.5zm2.87 57.58l22.65-143.3h35.24l-22.65 143.3zM86.62 401.83c-4.32-5-8.27-7.91-15.82-7.91-19.06 0-27 21-29.31 36-2.52 15.82-1.08 36 17.26 36 8.27 0 14-3.24 20.85-8.63l-8.27 37.94c-7.9 3.15-14.73 4.77-22.82 4.77-30 0-52-22.83-44.59-69.22 9.53-60.77 52.86-71 70.66-71A47.44 47.44 0 0 1 92.92 363zm91.51 48.37c-4.31 26.61-21.76 49.44-52.14 49.44s-40.63-22.83-36.32-49.44c4.13-26.61 21.58-49.45 52-49.45s40.6 22.84 36.46 49.45zm-53.94 0c-1.62 9.71-2.34 23 6.11 23s11.69-13.31 13.31-23c1.44-9.71 2.34-23-6.11-23s-11.87 13.29-13.31 23zM234 485.26l-.36-.36c-5.93 8.63-12.95 14.74-23.91 14.74-24.81 0-25.53-29.49-22.47-48.54 3.05-19.6 12.59-50.34 38.12-50.34 11 0 17.08 6.11 19.78 15.64l.36-.36c.54-4.32.9-8.63 1.44-12.95l7.73-48.73H290l-22.65 143.3h-36zm6.65-35.78c1.62-9.35 2-19.42-4.49-19.42-7.37 0-10.79 9.17-12.41 19.6-1.44 9.71-1.44 19.78 5.39 19.78 7.78-.01 10.12-9.89 11.56-19.96zm129.49 16c-7.37 21.94-26.07 34.16-47.29 34.16-29.31 0-40.63-19.78-36.32-47.65 4.32-27.15 23.73-51.24 52.86-51.24 14.56 0 24.27 6.11 29.67 15.46 7.19 12.41 5.93 26.43 3.6 41.35h-51.78c-.9 5.57-1.44 14.56 5.93 14.56a9.62 9.62 0 0 0 8.81-6.65zm-29.85-27c.72-5.21-.18-12-6.47-12-5.93 0-9.35 7.19-9.89 12zm50.16 25.02c3.41 4.49 9.53 9.89 16 9.89 3.06 0 7.19-1.44 7.73-4.85s-2.34-5.39-8.09-7.55c-12.95-4.85-22.84-12-20.32-28.23 3.06-19.6 21-32 43.15-32a56.34 56.34 0 0 1 27.87 7.73l-16.18 25.71c-3.6-3.78-7.55-8.45-13.49-8.45a5.92 5.92 0 0 0-5.93 4.67c-.72 4.85 5.75 7.37 9.17 8.81 12 4.85 21.22 11.69 18.88 27.15-3.41 21.4-23.73 33.26-43.33 33.26-12.95 0-22.3-3.77-32.54-9.89zm65.99 15.28c1.62-11 12.41-20.32 23-20.32 11.69 0 20 8.81 18 20.86-1.8 11.33-12.59 20.32-23.91 20.32-11.53 0-19.07-9.35-17.09-20.86z"/></svg>