<?xml version="1.0" encoding="UTF-8"?>
<svg width="319px" height="41px" viewBox="0 0 319 41" version="1.1" xmlns="http://www.w3.org/2000/svg" xmlns:xlink="http://www.w3.org/1999/xlink">
    <!-- Generator: Sketch 49.3 (51167) - http://www.bohemiancoding.com/sketch -->
    <title>Univers 45 Light</title>
    <desc>Created with Sketch.</desc>
    <defs></defs>
    <g id="Projects" stroke="none" stroke-width="1" fill="none" fill-rule="evenodd">
        <g id="This-Girl-Codes." transform="translate(-520.000000, -1359.000000)" fill="#FFFFFF">
            <path d="M520,1359 L522.906504,1359 L522.906504,1379.94858 C523.130081,1385.82495 526.48374,1389.36871 531.804878,1389.36871 C537.126016,1389.36871 540.479675,1385.82495 540.703252,1379.94858 L540.703252,1359 L543.609756,1359 L543.609756,1379.99344 C543.520325,1386.94639 539.630081,1392.06018 531.804878,1392.06018 C523.979675,1392.06018 520.089431,1386.94639 520,1379.99344 L520,1359 Z M554.207317,1378.42341 L554.207317,1391.38731 L551.52439,1391.38731 L551.52439,1373.93764 C551.52439,1372.18818 551.390244,1370.39387 551.300813,1368.86871 L554.073171,1368.86871 L554.207317,1372.18818 L554.296748,1372.2779 C555.861789,1369.49672 558.410569,1368.19584 561.317073,1368.19584 C568.650407,1368.19584 569.231707,1374.70022 569.231707,1377.30197 L569.231707,1391.38731 L566.54878,1391.38731 L566.54878,1376.85339 C566.54878,1372.95077 564.313008,1370.66302 560.646341,1370.66302 C556.219512,1370.66302 554.207317,1374.38621 554.207317,1378.42341 Z M576.430894,1368.86871 L579.113821,1368.86871 L579.113821,1391.38731 L576.430894,1391.38731 L576.430894,1368.86871 Z M579.337398,1359 L579.337398,1362.36433 L576.207317,1362.36433 L576.207317,1359 L579.337398,1359 Z M583.361789,1368.86871 L586.313008,1368.86871 L594.04878,1387.66411 L601.51626,1368.86871 L604.46748,1368.86871 L595.569106,1391.38731 L592.528455,1391.38731 L583.361789,1368.86871 Z M626.691057,1380.75602 L609.341463,1380.75602 C609.430894,1385.5558 611.621951,1389.593 617.121951,1389.593 C620.296748,1389.593 622.934959,1387.30525 623.605691,1384.21007 L626.422764,1384.21007 C625.036585,1389.593 621.682927,1392.06018 616.272358,1392.06018 C609.565041,1392.06018 606.434959,1386.27352 606.434959,1380.12801 C606.434959,1374.02735 609.788618,1368.19584 616.45122,1368.19584 C623.963415,1368.19584 626.691057,1373.71335 626.691057,1380.75602 Z M609.430894,1378.28884 L623.784553,1378.28884 C623.471545,1373.93764 621.146341,1370.66302 616.495935,1370.66302 C612.113821,1370.66302 609.788618,1374.34136 609.430894,1378.28884 Z M635.321138,1377.84026 L635.321138,1391.38731 L632.638211,1391.38731 L632.638211,1373.93764 C632.682927,1372.18818 632.504065,1370.39387 632.414634,1368.86871 L635.186992,1368.86871 L635.321138,1372.18818 L635.410569,1372.18818 C636.215447,1369.90044 638.227642,1368.28556 640.463415,1368.19584 C641.357724,1368.15098 642.252033,1368.19584 643.146341,1368.2407 L643.146341,1370.84245 C642.609756,1370.79759 642.028455,1370.66302 641.49187,1370.66302 C637.512195,1370.66302 635.410569,1373.53392 635.321138,1377.84026 Z M646.768293,1374.47593 C646.768293,1369.81072 651.060976,1368.19584 654.995935,1368.19584 C659.243902,1368.19584 662.821138,1369.67615 663.178862,1374.43107 L660.272358,1374.43107 C660.004065,1371.60503 657.5,1370.66302 654.727642,1370.66302 C652.223577,1370.66302 649.674797,1371.64989 649.674797,1374.2965 C649.674797,1377.61597 654.012195,1377.30197 660.093496,1379.45514 C662.418699,1380.26258 663.894309,1382.28118 663.894309,1384.7035 C663.894309,1389.77243 659.199187,1392.06018 654.45935,1392.06018 C650.569106,1392.06018 646.097561,1390.22101 646.00813,1385.24179 L648.914634,1385.24179 C649.138211,1388.60613 652.089431,1389.593 655.130081,1389.593 C657.99187,1389.593 660.987805,1388.24726 660.987805,1385.10722 C660.987805,1381.87746 657.455285,1381.33917 653.878049,1380.53173 C650.345528,1379.67943 646.768293,1378.6477 646.768293,1374.47593 Z M694.256098,1391.38731 L694.256098,1384.16521 L679.723577,1384.16521 L679.723577,1381.33917 L693.317073,1360.34573 L697.162602,1360.34573 L697.162602,1381.74289 L702.126016,1381.74289 L702.126016,1384.16521 L697.162602,1384.16521 L697.162602,1391.38731 L694.256098,1391.38731 Z M694.256098,1381.74289 L694.256098,1363.26149 L694.166667,1363.26149 L682.182927,1381.74289 L694.256098,1381.74289 Z M707,1378.3337 L707.715447,1360.34573 L724.752033,1360.34573 L724.752033,1363.0372 L710.487805,1363.0372 L709.995935,1374.11707 L710.085366,1374.20678 C711.829268,1372.18818 714.109756,1370.93217 716.882114,1370.93217 C722.695122,1370.93217 726.317073,1375.73195 726.317073,1381.29431 C726.317073,1387.26039 722.51626,1392.06018 716.390244,1392.06018 C711.158537,1392.06018 706.552846,1389.63786 706.373984,1383.76149 L709.504065,1383.76149 C709.682927,1387.48468 712.544715,1389.36871 716.077236,1389.36871 C720.906504,1389.36871 723.186992,1385.64551 723.186992,1381.15974 C723.186992,1376.67396 720.906504,1373.62363 716.256098,1373.62363 C713.304878,1373.62363 710.621951,1375.41794 709.995935,1378.3337 L707,1378.3337 Z M764.504065,1391.38731 L745.365854,1391.38731 L745.365854,1359 L748.272358,1359 L748.272358,1388.69584 L764.504065,1388.69584 L764.504065,1391.38731 Z M769.378049,1368.86871 L772.060976,1368.86871 L772.060976,1391.38731 L769.378049,1391.38731 L769.378049,1368.86871 Z M772.284553,1359 L772.284553,1362.36433 L769.154472,1362.36433 L769.154472,1359 L772.284553,1359 Z M794.731707,1379.63457 C794.731707,1375.32823 792.361789,1370.66302 787.53252,1370.66302 C782.658537,1370.66302 780.601626,1375.59737 780.601626,1379.72429 C780.601626,1383.8512 782.703252,1388.83042 787.621951,1388.83042 C792.764228,1388.83042 794.731707,1384.03063 794.731707,1379.63457 Z M794.731707,1372.18818 L794.865854,1368.86871 L797.638211,1368.86871 C797.54878,1370.39387 797.414634,1372.18818 797.414634,1373.93764 L797.414634,1387.43982 C797.414634,1391.9256 797.638211,1396.63567 792.674797,1398.96827 C790.886179,1399.82057 789.678862,1400 787.577236,1400 C783.50813,1400 778.678862,1398.60941 778.678862,1393.9442 L781.585366,1393.9442 C781.898374,1396.63567 785.073171,1397.53282 787.934959,1397.53282 C791.422764,1397.53282 794.642276,1395.06565 794.731707,1391.29759 L794.731707,1387.08096 L794.642276,1387.08096 C793.345528,1389.72757 790.260163,1391.29759 787.353659,1391.29759 C780.601626,1391.29759 777.695122,1386.13895 777.695122,1379.94858 C777.695122,1373.84792 780.422764,1368.19584 787.264228,1368.19584 C790.528455,1368.19584 792.853659,1369.76586 794.642276,1372.36761 L794.731707,1372.18818 Z M806.804878,1359 L806.804878,1372.2779 L806.894309,1372.2779 C808.45935,1369.49672 811.00813,1368.19584 813.914634,1368.19584 C821.247967,1368.19584 821.829268,1374.70022 821.829268,1377.30197 L821.829268,1391.38731 L819.146341,1391.38731 L819.146341,1376.85339 C819.146341,1372.95077 816.910569,1370.66302 813.243902,1370.66302 C808.817073,1370.66302 806.804878,1374.38621 806.804878,1378.42341 L806.804878,1391.38731 L804.121951,1391.38731 L804.121951,1359 L806.804878,1359 Z M830.906504,1385.37637 L830.906504,1371.33589 L826.434959,1371.33589 L826.434959,1368.86871 L830.906504,1368.86871 L830.906504,1364.06893 L833.589431,1362.90263 L833.589431,1368.86871 L838.686992,1368.86871 L838.686992,1371.33589 L833.589431,1371.33589 L833.589431,1386.4081 C833.544715,1388.47155 834.617886,1389.593 836.674797,1389.593 C837.479675,1389.593 838.284553,1389.54814 839,1389.32385 L839,1391.65646 C838.150407,1391.88074 837.166667,1392.06018 836.272358,1392.06018 C830.593496,1392.06018 830.906504,1388.4267 830.906504,1385.37637 Z" id="Univers-45-Light"></path>
        </g>
    </g>
</svg>