<svg width="319" height="41" viewBox="0 0 319 41" xmlns="http://www.w3.org/2000/svg"><title>Univers 45 Light</title><path d="M0 0h2.907v20.949c.223 5.876 3.577 9.42 8.898 9.42s8.675-3.544 8.898-9.42V0h2.907v20.993c-.09 6.953-3.98 12.067-11.805 12.067C3.98 33.06.089 27.946 0 20.993V0zm34.207 19.423v12.964h-2.683v-17.45c0-1.749-.134-3.543-.223-5.068h2.772l.134 3.32.09.089c1.565-2.781 4.114-4.082 7.02-4.082 7.333 0 7.915 6.504 7.915 9.106v14.085h-2.683V17.853c0-3.902-2.236-6.19-5.903-6.19-4.426 0-6.439 3.723-6.439 7.76zM56.431 9.87h2.683v22.518H56.43V9.87zM59.337 0v3.364h-3.13V0h3.13zm4.025 9.869h2.951l7.736 18.795L81.516 9.87h2.951L75.57 32.387h-3.04L63.361 9.87zm43.33 11.887h-17.35c.089 4.8 2.28 8.837 7.78 8.837 3.175 0 5.813-2.288 6.484-5.383h2.817c-1.386 5.383-4.74 7.85-10.15 7.85-6.708 0-9.838-5.786-9.838-11.932 0-6.1 3.354-11.932 10.016-11.932 7.512 0 10.24 5.517 10.24 12.56zM89.43 19.289h14.354c-.313-4.351-2.639-7.626-7.29-7.626-4.381 0-6.706 3.678-7.064 7.626zm25.89-.449v13.547h-2.683v-17.45c.045-1.749-.134-3.543-.223-5.068h2.772l.134 3.32h.09c.804-2.289 2.817-3.903 5.052-3.993.895-.045 1.789 0 2.683.045v2.601c-.536-.044-1.118-.179-1.654-.179-3.98 0-6.081 2.87-6.17 7.177zm11.447-3.364c0-4.665 4.293-6.28 8.228-6.28 4.248 0 7.825 1.48 8.183 6.235h-2.907c-.268-2.826-2.772-3.768-5.544-3.768-2.504 0-5.053.987-5.053 3.633 0 3.32 4.337 3.006 10.418 5.16 2.326.807 3.801 2.825 3.801 5.248 0 5.068-4.695 7.356-9.435 7.356-3.89 0-8.361-1.839-8.45-6.818h2.906c.223 3.364 3.174 4.351 6.215 4.351 2.862 0 5.858-1.346 5.858-4.486 0-3.23-3.533-3.768-7.11-4.575-3.532-.853-7.11-1.884-7.11-6.056zm47.488 16.911v-7.222h-14.532V22.34l13.593-20.993h3.846v21.397h4.963v2.422h-4.963v7.222h-2.907zm0-9.644V4.26h-.09l-11.983 18.482h12.073zM187 19.333l.715-17.987h17.037v2.691h-14.264l-.492 11.08.09.09c1.743-2.019 4.024-3.275 6.796-3.275 5.813 0 9.435 4.8 9.435 10.362 0 5.966-3.8 10.766-9.927 10.766-5.231 0-9.837-2.422-10.016-8.299h3.13c.179 3.724 3.04 5.608 6.573 5.608 4.83 0 7.11-3.723 7.11-8.21 0-4.485-2.28-7.535-6.93-7.535-2.952 0-5.635 1.794-6.261 4.71H187zm57.504 13.054h-19.138V0h2.906v29.696h16.232v2.691zm4.874-22.518h2.683v22.518h-2.683V9.87zM252.285 0v3.364h-3.13V0h3.13zm22.447 20.635c0-4.307-2.37-8.972-7.2-8.972-4.873 0-6.93 4.934-6.93 9.061s2.101 9.106 7.02 9.106c5.142 0 7.11-4.8 7.11-9.195zm0-7.447l.134-3.32h2.772c-.09 1.526-.223 3.32-.223 5.07V28.44c0 4.486.223 9.196-4.74 11.528-1.789.853-2.996 1.032-5.098 1.032-4.069 0-8.898-1.39-8.898-6.056h2.906c.313 2.692 3.488 3.589 6.35 3.589 3.488 0 6.707-2.467 6.797-6.235V28.08h-.09c-1.296 2.647-4.382 4.217-7.288 4.217-6.752 0-9.659-5.159-9.659-11.35 0-6.1 2.728-11.752 9.57-11.752 3.263 0 5.589 1.57 7.377 4.172l.09-.18zM286.805 0v13.278h.09c1.564-2.781 4.113-4.082 7.02-4.082 7.333 0 7.914 6.504 7.914 9.106v14.085h-2.683V17.853c0-3.902-2.235-6.19-5.902-6.19-4.427 0-6.44 3.723-6.44 7.76v12.964h-2.682V0h2.683zm24.102 26.376v-14.04h-4.472V9.869h4.472v-4.8l2.682-1.166v5.966h5.098v2.467h-5.098v15.072c-.044 2.064 1.029 3.185 3.086 3.185.805 0 1.61-.045 2.325-.27v2.333c-.85.225-1.833.404-2.728.404-5.679 0-5.365-3.633-5.365-6.684z" fill="#FFF" fill-rule="evenodd"/></svg>