<?xml version="1.0" encoding="UTF-8"?>
<svg width="71px" height="20px" viewBox="0 0 71 20" version="1.1" xmlns="http://www.w3.org/2000/svg" xmlns:xlink="http://www.w3.org/1999/xlink">
    <!-- Generator: Sketch 49.3 (51167) - http://www.bohemiancoding.com/sketch -->
    <title>NavDesktop</title>
    <desc>Created with Sketch.</desc>
    <defs></defs>
    <g id="Home" stroke="none" stroke-width="1" fill="none" fill-rule="evenodd">
        <g id="Mobile-Portrait" transform="translate(-152.000000, -38.000000)" fill="#000000">
            <g id="NavDesktop" transform="translate(152.000000, 38.000000)">
                <path d="M13.2466047,0.28 L8.97080194,0.28 L8.97080194,12.2025237 C8.97080194,12.9032632 8.7425751,13.4938777 8.28611457,13.9743849 C7.82965403,14.454892 7.27538884,14.695142 6.62330237,14.695142 C5.97121589,14.695142 5.42160839,14.454892 4.97446338,13.9743849 C4.52731837,13.4938777 4.30374922,12.9032632 4.30374922,12.2025237 L4.30374922,8.95911672 L-2.27373675e-13,8.95911672 L-2.27373675e-13,12.2325552 C-2.27373675e-13,13.2135906 0.176992246,14.1345488 0.530982046,14.9954574 C0.884971847,15.856366 1.3600563,16.6071472 1.95624964,17.2478233 C2.55244299,17.8884995 3.25109659,18.3940255 4.05223141,18.7644164 C4.85336622,19.1348073 5.7103813,19.32 6.62330237,19.32 C7.53622343,19.32 8.39323852,19.1348073 9.19437333,18.7644164 C9.99550814,18.3940255 10.6941617,17.8884995 11.2903551,17.2478233 C11.8865484,16.6071472 12.3616329,15.856366 12.7156227,14.9954574 C13.0696125,14.1345488 13.2466047,13.2135906 13.2466047,12.2325552 L13.2466047,0.28 Z M24.9081653,4.90485804 C25.5416207,4.90485804 26.1331475,5.03499344 26.6827632,5.29526814 C27.2323789,5.55554284 27.7121211,5.90590737 28.122004,6.34637224 C28.5318869,6.78683711 28.8579253,7.30237349 29.1001288,7.89299685 C29.3423324,8.4836202 29.4634323,9.11928156 29.4634323,9.8 C29.4634323,10.4807184 29.3423324,11.1163798 29.1001288,11.7070032 C28.8579253,12.2976265 28.5318869,12.8181681 28.122004,13.2686435 C27.7121211,13.719119 27.2323789,14.0744887 26.6827632,14.3347634 C26.1331475,14.5950381 25.5416207,14.7251735 24.9081653,14.7251735 C24.2747099,14.7251735 23.6831832,14.5950381 23.1335674,14.3347634 C22.5839517,14.0744887 22.1042095,13.719119 21.6943266,13.2686435 C21.2844437,12.8181681 20.9584053,12.2976265 20.7162018,11.7070032 C20.4739982,11.1163798 20.3528983,10.4807184 20.3528983,9.8 C20.3528983,9.11928156 20.4739982,8.4836202 20.7162018,7.89299685 C20.9584053,7.30237349 21.2844437,6.78683711 21.6943266,6.34637224 C22.1042095,5.90590737 22.5839517,5.55554284 23.1335674,5.29526814 C23.6831832,5.03499344 24.2747099,4.90485804 24.9081653,4.90485804 Z M24.9081653,19.32 C26.1378141,19.32 27.2882637,19.0697396 28.3595486,18.5692114 C29.4308335,18.0686831 30.3670294,17.3879749 31.1681642,16.5270662 C31.969299,15.6661576 32.6027449,14.6601109 33.068521,13.5088959 C33.534297,12.3576809 33.7671816,11.1213946 33.7671816,9.8 C33.7671816,8.49862651 33.534297,7.26734545 33.068521,6.10611987 C32.6027449,4.9448943 31.969299,3.93384237 31.1681642,3.07293375 C30.3670294,2.21202514 29.4308335,1.53131691 28.3595486,1.03078864 C27.2882637,0.530260379 26.1378141,0.28 24.9081653,0.28 C23.6785165,0.28 22.5280669,0.530260379 21.456782,1.03078864 C20.3854971,1.53131691 19.4493013,2.21202514 18.6481664,3.07293375 C17.8470316,3.93384237 17.2135857,4.9448943 16.7478096,6.10611987 C16.2820336,7.26734545 16.0491491,8.49862651 16.0491491,9.8 C16.0491491,11.1213946 16.2820336,12.3576809 16.7478096,13.5088959 C17.2135857,14.6601109 17.8470316,15.6661576 18.6481664,16.5270662 C19.4493013,17.3879749 20.3854971,18.0686831 21.456782,18.5692114 C22.5280669,19.0697396 23.6785165,19.32 24.9081653,19.32 Z M45.547209,19.32 C46.7209647,19.32 47.8341527,19.0847552 48.8868066,18.6142587 C49.9394605,18.1437621 50.8849717,17.4680591 51.7233686,16.5871293 L48.7051549,13.3437224 C47.8108649,14.2446733 46.7582268,14.695142 45.547209,14.695142 C44.9137536,14.695142 44.3222269,14.5650066 43.7726111,14.3047319 C43.2229954,14.0444572 42.7432532,13.6940926 42.3333703,13.2536278 C41.9234874,12.8131629 41.597449,12.2976265 41.3552455,11.7070032 C41.1130419,11.1163798 40.991942,10.4807184 40.991942,9.8 C40.991942,9.11928156 41.1130419,8.4836202 41.3552455,7.89299685 C41.597449,7.30237349 41.9234874,6.78683711 42.3333703,6.34637224 C42.7432532,5.90590737 43.2229954,5.55554284 43.7726111,5.29526814 C44.3222269,5.03499344 44.9137536,4.90485804 45.547209,4.90485804 C46.7582268,4.90485804 47.8108649,5.35532673 48.7051549,6.2562776 L51.7233686,3.01287066 C50.8849717,2.11191979 49.9394605,1.43121156 48.8868066,0.970725552 C47.8341527,0.510239548 46.7209647,0.28 45.547209,0.28 C44.3175602,0.28 43.1671106,0.530260379 42.0958257,1.03078864 C41.0245408,1.53131691 40.088345,2.21202514 39.2872102,3.07293375 C38.4860753,3.93384237 37.8526294,4.93988909 37.3868534,6.0911041 C36.9210773,7.24231911 36.6881928,8.47860538 36.6881928,9.8 C36.6881928,11.1213946 36.9210773,12.3576809 37.3868534,13.5088959 C37.8526294,14.6601109 38.4860753,15.6661576 39.2872102,16.5270662 C40.088345,17.3879749 41.0245408,18.0686831 42.0958257,18.5692114 C43.1671106,19.0697396 44.3175602,19.32 45.547209,19.32 Z M62.2925987,4.87442199 C62.9260542,4.87442199 63.5175809,5.00455739 64.0671966,5.26483209 C64.6168124,5.52510679 65.0965545,5.87547132 65.5064374,6.31593619 C65.9163204,6.75640106 66.2423587,7.27193744 66.4845623,7.86256079 C66.7267658,8.45318415 66.8478658,9.08884551 66.8478658,9.76956395 C66.8478658,10.4502824 66.7267658,11.0859438 66.4845623,11.6765671 C66.2423587,12.2671905 65.9163204,12.787732 65.5064374,13.2382075 C65.0965545,13.6886829 64.6168124,14.0440527 64.0671966,14.3043274 C63.5175809,14.5646021 62.9260542,14.6947375 62.2925987,14.6947375 C61.6591433,14.6947375 61.0676166,14.5646021 60.5180008,14.3043274 C59.9683851,14.0440527 59.488643,13.6886829 59.07876,13.2382075 C58.6688771,12.787732 58.3428388,12.2671905 58.1006352,11.6765671 C57.8584317,11.0859438 57.7373317,10.4502824 57.7373317,9.76956395 C57.7373317,9.08884551 57.8584317,8.45318415 58.1006352,7.86256079 C58.3428388,7.27193744 58.6688771,6.75640106 59.07876,6.31593619 C59.488643,5.87547132 59.9683851,5.52510679 60.5180008,5.26483209 C61.0676166,5.00455739 61.6591433,4.87442199 62.2925987,4.87442199 Z M62.1409838,19.32 C63.3706325,19.32 64.5210821,19.0697396 65.5923671,18.5692114 C66.663652,18.0686831 67.5998478,17.3879749 68.4009826,16.5270662 C69.2021174,15.6661576 69.8355634,14.6601109 70.3013394,13.5088959 C70.7671155,12.3576809 71,11.1213946 71,9.8 C71,8.49862651 70.7671155,7.26734545 70.3013394,6.10611987 C69.8355634,4.9448943 69.2021174,3.93384237 68.4009826,3.07293375 C67.5998478,2.21202514 66.663652,1.53131691 65.5923671,1.03078864 C64.5210821,0.530260379 63.3706325,0.28 62.1409838,0.28 C60.911335,0.28 59.7608854,0.530260379 58.6896004,1.03078864 C57.6183155,1.53131691 56.6821197,2.21202514 55.8809849,3.07293375 C55.0798501,3.93384237 54.4464041,4.9448943 53.9806281,6.10611987 C53.514852,7.26734545 53.2819675,8.49862651 53.2819675,9.8 C53.2819675,11.1213946 53.514852,12.3576809 53.9806281,13.5088959 C54.4464041,14.6601109 55.0798501,15.6661576 55.8809849,16.5270662 C56.6821197,17.3879749 57.6183155,18.0686831 58.6896004,18.5692114 C59.7608854,19.0697396 60.911335,19.32 62.1409838,19.32 Z" id="JO-CO"></path>
            </g>
        </g>
    </g>
</svg>