<svg xmlns="http://www.w3.org/2000/svg" viewBox="0 0 216 61.91"><defs><style>.a{fill-rule:evenodd;}</style></defs><title>logo</title><path class="a" d="M47.47,0H32.15V40a7.06,7.06,0,0,1-2.45,5.45,8.57,8.57,0,0,1-6,2.22,8.39,8.39,0,0,1-5.91-2.22A7.13,7.13,0,0,1,15.42,40V30H0V40.11a19.42,19.42,0,0,0,1.9,8.5A22.65,22.65,0,0,0,7,55.54a24,24,0,0,0,7.51,4.67,24.75,24.75,0,0,0,9.21,1.71,24.75,24.75,0,0,0,9.21-1.71,24,24,0,0,0,7.51-4.67,22.65,22.65,0,0,0,5.11-6.93,19.42,19.42,0,0,0,1.9-8.5Z"/><path class="a" d="M71.5,21.94l.1,18A7.13,7.13,0,0,0,74,45.43a8.39,8.39,0,0,0,5.91,2.22,8.57,8.57,0,0,0,6-2.22A7.06,7.06,0,0,0,88.32,40v-18a7.22,7.22,0,0,0-2.5-5.45,8.39,8.39,0,0,0-5.91-2.22,8.57,8.57,0,0,0-6,2.22A7.06,7.06,0,0,0,71.5,21.94Zm-15.32-.09a19.42,19.42,0,0,1,1.9-8.5,22.65,22.65,0,0,1,5.11-6.93A24,24,0,0,1,70.7,1.75a25.69,25.69,0,0,1,18.43,0,24,24,0,0,1,7.51,4.67,22.65,22.65,0,0,1,5.11,6.93,19.42,19.42,0,0,1,1.9,8.5V40.07a19.42,19.42,0,0,1-1.9,8.5,22.65,22.65,0,0,1-5.11,6.93,24,24,0,0,1-7.51,4.67,25.69,25.69,0,0,1-18.43,0,24,24,0,0,1-7.51-4.67,22.65,22.65,0,0,1-5.11-6.93,19.42,19.42,0,0,1-1.9-8.5Z"/><path class="a" d="M112.28,40.11a19.37,19.37,0,0,0,1.91,8.5,22.65,22.65,0,0,0,5.12,6.93,24.11,24.11,0,0,0,7.53,4.67,25.83,25.83,0,0,0,18.48,0,24.11,24.11,0,0,0,7.53-4.67A22.65,22.65,0,0,0,158,48.61a19.37,19.37,0,0,0,1.91-8.5v-4H144.5L144.42,40A7.12,7.12,0,0,1,142,45.47a8.43,8.43,0,0,1-5.93,2.22,8.61,8.61,0,0,1-6-2.22A7.05,7.05,0,0,1,127.65,40l0-18.13a7.06,7.06,0,0,1,2.45-5.45,8.57,8.57,0,0,1,6-2.22A8.39,8.39,0,0,1,142,16.44a7.13,7.13,0,0,1,2.4,5.45v3.23h15.42V21.8a19.42,19.42,0,0,0-1.9-8.5,22.65,22.65,0,0,0-5.11-6.93,24,24,0,0,0-7.51-4.67,25.69,25.69,0,0,0-18.43,0,24,24,0,0,0-7.51,4.67,22.65,22.65,0,0,0-5.11,6.93,19.42,19.42,0,0,0-1.9,8.5Z"/><path class="a" d="M183.85,21.94l.1,18a7.13,7.13,0,0,0,2.4,5.45,8.39,8.39,0,0,0,5.91,2.22,8.57,8.57,0,0,0,6-2.22A7.06,7.06,0,0,0,200.68,40v-18a7.22,7.22,0,0,0-2.5-5.45,8.39,8.39,0,0,0-5.91-2.22,8.57,8.57,0,0,0-6,2.22A7.06,7.06,0,0,0,183.85,21.94Zm-15.32-.09a19.42,19.42,0,0,1,1.9-8.5,22.65,22.65,0,0,1,5.11-6.93A24,24,0,0,1,183,1.75a25.69,25.69,0,0,1,18.43,0A24,24,0,0,1,209,6.42a22.65,22.65,0,0,1,5.11,6.93,19.42,19.42,0,0,1,1.9,8.5V40.07a19.42,19.42,0,0,1-1.9,8.5A22.65,22.65,0,0,1,209,55.5a24,24,0,0,1-7.51,4.67,25.69,25.69,0,0,1-18.43,0,24,24,0,0,1-7.51-4.67,22.65,22.65,0,0,1-5.11-6.93,19.42,19.42,0,0,1-1.9-8.5Z"/></svg>